<?xml version="1.0" encoding="UTF-8"?>
<svg id="Layer_1" data-name="Layer 1" xmlns="http://www.w3.org/2000/svg" viewBox="0 0 995 200">
  <defs>
    <style>
      .cls-1 {
        fill: #ee2524;
      }

      .cls-1, .cls-2, .cls-3 {
        stroke-width: 0px;
      }

      .cls-2 {
        fill: #000;
      }

      .cls-3 {
        fill: #231f20;
      }
    </style>
  </defs>
  <path class="cls-2" d="M229.47,16.45l-19.34,74.77h106.34c9.66-1.93,35.44-8.38,35.44-36.09.64-8.37-4.5-36.1-37.38-39.31-11.6,0-85.07.63-85.07.63"/>
  <path class="cls-2" d="M206.86,107.24l-19.97,76.01h109.52s30.92-5.8,32.84-38c-.64-14.18-6.43-31.58-34.78-38.01h-87.61Z"/>
  <path class="cls-1" d="M92.84,182.55s9.84-38.76,14.43-54.53c7.28-17.12,28.93-21.72,28.93-21.72h57.22s0,1.98-12.46,48.66c-8.55,24.97-30.27,28.3-30.27,28.3l-57.86-.71Z"/>
  <path class="cls-2" d="M10.55,183.25L54.21,17.1h161.91l-20.01,75.8s-47.3-1.21-51.54-.61c-6.67,0-32.75-.6-50.94,33.35-4.24,15.16-15.16,57.61-15.16,57.61H10.55Z"/>
  <path class="cls-2" d="M338.19,169.68h3.53c.74,0,1.33-.08,1.75-.26.43-.17.74-.44.96-.82.22-.38.33-.78.33-1.23,0-.65-.22-1.18-.64-1.6-.42-.41-1.1-.62-2.01-.62h-3.93v4.53ZM336.53,177.46v-13.87h5.52c1.1,0,1.94.12,2.52.37.57.25,1.03.69,1.37,1.32.35.63.52,1.33.52,2.09,0,.98-.29,1.81-.86,2.48-.57.68-1.45,1.11-2.63,1.29.43.23.76.46.99.69.48.49.94,1.1,1.36,1.84l2.15,3.78h-2.06l-1.64-2.88c-.48-.83-.87-1.47-1.18-1.91-.31-.44-.59-.75-.83-.93-.24-.18-.5-.3-.75-.37-.18-.05-.49-.07-.91-.07h-1.91v6.16h-1.67Z"/>
  <path class="cls-2" d="M341.45,159.93c-6.09,0-11.04,4.95-11.04,11.04s4.95,11.04,11.04,11.04,11.04-4.95,11.04-11.04-4.95-11.04-11.04-11.04M341.45,183.29c-6.79,0-12.32-5.53-12.32-12.32s5.53-12.32,12.32-12.32,12.32,5.53,12.32,12.32-5.53,12.32-12.32,12.32"/>
  <path class="cls-2" d="M435.73,71.7l-2.3,8.31h-22.27c-1.01,0-1.91.34-2.71,1.01-.8.67-1.24,1.47-1.33,2.39-.06.67.03,1.27.27,1.79.34.67.87,1.01,1.61,1.01h21.54l-2.07,7.9h-21.95c-1.44.03-2.42,1.03-2.94,3-.67,2.67-1.42,5.53-2.25,8.57h-10.38l7.03-27.59c.24-.64.52-1.24.83-1.79.7-1.32,1.51-2.31,2.41-2.97.9-.66,1.83-1.08,2.78-1.26.34-.06,1.73-.18,4.18-.37h27.55Z"/>
  <path class="cls-2" d="M479.44,80.95c-.31,2.33-2.54,10.58-6.7,24.74h-10.38c.37-1.54.93-3.89,1.7-7.06.06-1.35-.84-2.03-2.71-2.03h-16.44c.49-1.71,1.3-4.59,2.43-8.63h17.31c1.04,0,1.9-.55,2.57-1.65.46-.8.75-1.67.87-2.62.12-.98-.17-1.77-.87-2.37-.7-.6-1.68-.93-2.94-.99h-9.87c-2.14,0-3.72.14-4.73.42-1.78.46-2.88,1.41-3.31,2.85-1.16,4.08-3.18,11.44-6.06,22.08h-10.51c1.16-4.72,2.36-9.24,3.58-13.57.95-3.46,1.5-5.55,1.65-6.25,1.01-4.84,2.88-8.28,5.6-10.3,1.96-1.44,3.8-2.44,5.53-3.01,1.73-.57,3.91-.85,6.54-.85h16.62c3.03.12,5.49.9,7.37,2.32,1.88,1.43,2.82,3.32,2.82,5.68,0,.4-.03.81-.09,1.24"/>
  <path class="cls-2" d="M475.86,105.68c2.85-11.13,4.77-18.62,5.79-22.49.43-1.72.87-3.45,1.33-5.2.61-1.78,1.47-3.1,2.57-3.95,2.08-1.56,4.42-2.35,7.03-2.35h18.41c5.82,0,9.34,1.12,10.56,3.36.77,1.35,1.15,2.9,1.15,4.64,0,.86-.08,1.82-.23,2.9-.27,2.12-.87,4.21-1.79,6.3-.92,2.09-1.87,3.54-2.85,4.37-.77.64-1.48,1.18-2.16,1.61.67,6.25,1.07,9.86,1.19,10.81l-11.39-.05-.18-6.8c.03-.83-.11-1.41-.41-1.75-.61-.34-1.09-.53-1.42-.6h-13.1l2.41-8.17h14.42c1.68,0,2.83-.69,3.45-2.07.61-1.38.92-2.63.92-3.77,0-1.68-.72-2.51-2.16-2.48h-13.68c-1.62,0-2.75.86-3.4,2.57-2.48,8.6-4.61,16.29-6.38,23.05l-10.06.05Z"/>
  <path class="cls-2" d="M578.26,71.7c3.7,0,6.63,1.18,8.77,3.54.8.89,1.19,2.25,1.19,4.09,0,1.29-.17,2.62-.51,3.99l-5.92,22.32-10.75.04,5.65-21.62c.3-1.29.21-2.15-.3-2.58-.51-.43-1.58-.64-3.24-.64h-5.56c-1.19,0-2.16.2-2.89.6-.95.52-1.56,1.27-1.84,2.25l-5.97,21.95-10.84.04,5.74-22.36c.31-1.04.24-1.76-.18-2.16-.61-.55-2.16-.86-4.64-.92h-4.27c-1.56.06-2.68.31-3.35.74-.92.61-1.49,1.33-1.7,2.16l-6.11,22.5-10.56.04,8.95-33.98h48.31Z"/>
  <path class="cls-2" d="M649.16,81.81c.12-1.47-.73-2.2-2.57-2.2h-14.92c-1.13,0-2.08.34-2.85,1.01-.77.67-1.15,1.55-1.15,2.62,0,1.35.6,2.02,1.79,2.02h15.7c.92,0,1.76-.28,2.53-.83.89-.64,1.38-1.52,1.47-2.62M660.37,78.79c-.46,5.21-2.91,8.42-7.35,9.61,3.34.65,4.87,2.53,4.59,5.66-.46,5.4-2.96,8.98-7.49,10.76-.73.28-2.43.57-5.1.87h-21.26c.7-2.3,1.41-4.85,2.11-7.67h17.27c1.1-.09,2.01-.48,2.73-1.16.72-.68,1.12-1.48,1.22-2.41.03-.68-.15-1.23-.53-1.67-.38-.43-.86-.65-1.45-.65h-16.94c-1.96,0-3.28,1.35-3.95,4.06-.49,1.97-1.38,5.13-2.66,9.49h-10.2c.86-3.77,2.17-9.06,3.95-15.86,1.75-6.71,2.95-11.13,3.63-13.24.46-1.41,1.64-2.62,3.54-3.63,1.62-.83,3.12-1.24,4.5-1.24h25.95c1.19,0,2.42.25,3.67.74,1.16.46,1.99.98,2.48,1.56.92,1.11,1.38,2.29,1.38,3.54,0,.22-.03.63-.09,1.24"/>
  <path class="cls-2" d="M687.73,105.64h-16.3c-4.9,0-8.37-1.13-10.42-3.4-.83-.89-1.24-2.28-1.24-4.18,0-1.29.17-2.62.51-4l6.11-22.36h10.61l-5.83,21.54c-.4,1.26-.28,2.21.37,2.87.64.66,1.64.99,2.98.99h12.35c1.68,0,2.91-.29,3.67-.87,1.1-.83,1.79-1.64,2.07-2.43l6.29-22.09h10.56l-6.38,22.87c-1.47,3.67-3.02,6.21-4.64,7.62-2.69,2.3-6.26,3.44-10.7,3.44"/>
  <path class="cls-2" d="M704.4,105.68c2.85-11.13,4.78-18.62,5.79-22.49.43-1.72.87-3.45,1.33-5.2.61-1.78,1.47-3.1,2.57-3.95,2.08-1.56,4.42-2.35,7.03-2.35h18.41c5.82,0,9.34,1.12,10.56,3.36.77,1.35,1.15,2.9,1.15,4.64,0,.86-.08,1.82-.23,2.9-.28,2.12-.87,4.21-1.79,6.3-.92,2.09-1.87,3.54-2.85,4.37-.76.64-1.49,1.18-2.16,1.61.67,6.25,1.07,9.86,1.19,10.81l-11.4-.05-.18-6.8c.03-.83-.11-1.41-.41-1.75-.61-.34-1.09-.53-1.42-.6h-13.1l2.41-8.17h14.42c1.68,0,2.83-.69,3.44-2.07.61-1.38.92-2.63.92-3.77,0-1.68-.72-2.51-2.16-2.48h-13.68c-1.62,0-2.76.86-3.4,2.57-2.48,8.6-4.61,16.29-6.38,23.05l-10.06.05Z"/>
  <path class="cls-2" d="M795.05,71.7l-2.3,8.31h-24.57c-2.05,0-3.17,1.02-3.35,3.05-.12,1.4.35,2.12,1.42,2.18h23.51l-1.88,6.89h-23.6c-.8,0-1.42.4-1.88,1.2-.37.56-.58,1.18-.64,1.85-.09,1.14.43,1.79,1.56,1.95h25.16l-2.34,8.54h-32.01c-1.26,0-2.3-.51-3.15-1.52-.84-1.01-1.19-2.02-1.03-3.04.25-1.65,1.35-6.1,3.31-13.33,1.44-5.36,2.89-10.73,4.36-16.09h37.43Z"/>
  <path class="cls-2" d="M838.76,80.95c-.31,2.33-2.54,10.58-6.7,24.74h-10.38c.37-1.54.93-3.89,1.7-7.06.06-1.35-.84-2.03-2.71-2.03h-16.44c.49-1.71,1.3-4.59,2.43-8.63h17.31c1.04,0,1.9-.55,2.57-1.65.46-.8.75-1.67.87-2.62.12-.98-.17-1.77-.87-2.37-.71-.6-1.68-.93-2.94-.99h-9.87c-2.14,0-3.72.14-4.73.42-1.78.46-2.88,1.41-3.31,2.85-1.16,4.08-3.18,11.44-6.06,22.08h-10.52c1.16-4.72,2.36-9.24,3.58-13.57.95-3.46,1.5-5.55,1.65-6.25,1.01-4.84,2.88-8.28,5.6-10.3,1.96-1.44,3.8-2.44,5.53-3.01,1.73-.57,3.91-.85,6.54-.85h16.62c3.03.12,5.49.9,7.37,2.32,1.88,1.43,2.82,3.32,2.82,5.68,0,.4-.03.81-.09,1.24"/>
  <path class="cls-2" d="M865.58,105.64h-16.3c-4.9,0-8.37-1.13-10.42-3.4-.83-.89-1.24-2.28-1.24-4.18,0-1.29.17-2.62.51-4l6.11-22.36h10.61l-5.83,21.54c-.4,1.26-.28,2.21.37,2.87.64.66,1.64.99,2.98.99h12.35c1.68,0,2.91-.29,3.67-.87,1.1-.83,1.79-1.64,2.07-2.43l6.29-22.09h10.56l-6.38,22.87c-1.47,3.67-3.02,6.21-4.64,7.62-2.69,2.3-6.26,3.44-10.7,3.44"/>
  <path class="cls-2" d="M898,77.59h1.89c.4,0,.71-.04.93-.14.23-.09.4-.24.51-.44.12-.2.18-.42.18-.66,0-.35-.12-.63-.34-.85-.23-.22-.59-.33-1.07-.33h-2.1v2.42ZM897.11,81.75v-7.41h2.95c.59,0,1.04.07,1.35.2.31.13.55.37.73.71.19.34.28.71.28,1.12,0,.53-.15.97-.46,1.33-.3.36-.77.59-1.41.69.23.12.41.25.53.37.26.26.5.59.73.98l1.15,2.02h-1.1l-.88-1.54c-.26-.44-.47-.79-.63-1.02-.17-.24-.31-.4-.45-.5-.13-.09-.26-.16-.4-.2-.1-.03-.26-.04-.48-.04h-1.02v3.29h-.89Z"/>
  <path class="cls-2" d="M899.74,72.39c-3.25,0-5.9,2.65-5.9,5.9s2.65,5.9,5.9,5.9,5.9-2.65,5.9-5.9-2.65-5.9-5.9-5.9M899.74,84.87c-3.63,0-6.58-2.95-6.58-6.58s2.95-6.58,6.58-6.58,6.58,2.95,6.58,6.58-2.95,6.58-6.58,6.58"/>
  <path class="cls-2" d="M432.53,16.09c2.2,0,3.87.12,5.03.36,1.77.4,3.16,1.14,4.17,2.24.7.76,1.05,2,1.06,3.71,0,1.59-.27,3.34-.82,5.26l-5.89,22.25-10.57.06,5.61-21.46c.21-.61.32-1.13.32-1.56,0-.58-.17-1.04-.5-1.38-.64-.64-1.63-.96-2.98-.96h-15.38c-1.49.01-2.61.26-3.34.75-.92.61-1.48,1.33-1.69,2.15l-6.07,22.43-10.52.05,8.9-33.87,32.68-.03Z"/>
  <path class="cls-2" d="M486.03,16.04l-2.28,8.29-24.49.02c-2.04,0-3.16,1.02-3.34,3.04-.12,1.39.35,2.12,1.42,2.18l23.43-.02-1.87,6.87-23.52.02c-.79,0-1.42.4-1.88,1.2-.37.56-.58,1.17-.64,1.85-.09,1.14.43,1.79,1.56,1.94l25.08-.02-2.33,8.51-31.9.03c-1.25,0-2.3-.5-3.14-1.51-.84-1.01-1.18-2.02-1.03-3.02.24-1.65,1.34-6.08,3.28-13.29,1.43-5.35,2.87-10.7,4.33-16.04l37.3-.03Z"/>
  <path class="cls-2" d="M518.98,26.08c.12-1.46-.73-2.2-2.56-2.2h-14.87c-1.13.01-2.07.35-2.84,1.02-.76.67-1.14,1.54-1.14,2.61,0,1.34.6,2.01,1.79,2.01h15.65c.92-.01,1.75-.29,2.52-.84.88-.64,1.37-1.51,1.46-2.61M530.15,23.06c-.45,5.2-2.89,8.39-7.32,9.59,3.33.64,4.85,2.52,4.58,5.63-.45,5.38-2.94,8.96-7.45,10.73-.73.28-2.42.57-5.08.88l-21.19.02c.7-2.29,1.4-4.84,2.1-7.65h17.21c1.1-.11,2.01-.49,2.72-1.17.71-.68,1.12-1.48,1.21-2.4.03-.68-.15-1.23-.53-1.66-.38-.43-.86-.64-1.44-.64h-16.89c-1.95.02-3.27,1.36-3.93,4.06-.49,1.96-1.37,5.11-2.65,9.46h-10.16c.85-3.75,2.16-9.02,3.92-15.8,1.73-6.69,2.93-11.09,3.61-13.2.46-1.41,1.63-2.61,3.52-3.62,1.62-.83,3.11-1.24,4.48-1.24l25.86-.02c1.19,0,2.41.24,3.66.73,1.16.46,1.98.98,2.47,1.56.92,1.1,1.38,2.28,1.38,3.53,0,.21-.03.63-.09,1.24"/>
  <path class="cls-2" d="M527.15,49.87c2.83-11.09,4.74-18.56,5.75-22.41.43-1.71.87-3.44,1.32-5.18.61-1.77,1.46-3.09,2.56-3.94,2.07-1.56,4.41-2.34,7-2.34l18.35-.02c5.8,0,9.31,1.11,10.53,3.34.76,1.34,1.15,2.89,1.15,4.63,0,.86-.08,1.82-.23,2.89-.27,2.11-.86,4.2-1.78,6.28-.91,2.08-1.86,3.53-2.83,4.36-.76.64-1.48,1.18-2.15,1.61.68,6.23,1.08,9.82,1.2,10.77l-11.36-.04-.19-6.77c.03-.82-.11-1.4-.41-1.74-.61-.33-1.09-.53-1.42-.59h-13.05s2.39-8.14,2.39-8.14h14.37c1.68-.01,2.82-.7,3.43-2.07.61-1.37.91-2.62.91-3.75,0-1.68-.72-2.5-2.15-2.47h-13.64c-1.62.01-2.74.87-3.38,2.58-2.46,8.58-4.58,16.24-6.34,22.98l-10.02.05Z"/>
  <path class="cls-2" d="M620.4,25.13c-.3,2.32-2.52,10.54-6.66,24.66h-10.34c.37-1.52.93-3.87,1.69-7.03.06-1.35-.84-2.02-2.7-2.02h-16.38c.49-1.7,1.29-4.56,2.42-8.59h17.25c1.04-.02,1.89-.57,2.56-1.66.46-.79.75-1.66.87-2.61.12-.98-.17-1.76-.87-2.36-.7-.6-1.68-.92-2.93-.98h-9.84c-2.14,0-3.71.15-4.71.43-1.77.46-2.87,1.41-3.29,2.85-1.16,4.07-3.16,11.4-6.02,22.01h-10.48c1.16-4.7,2.34-9.21,3.56-13.51.94-3.45,1.49-5.53,1.64-6.23,1-4.83,2.86-8.25,5.57-10.27,1.95-1.44,3.79-2.44,5.51-3.01,1.72-.57,3.9-.85,6.52-.85h16.57c3.02.11,5.47.88,7.35,2.29,1.88,1.42,2.82,3.3,2.82,5.66,0,.4-.03.81-.09,1.24"/>
  <path class="cls-2" d="M618.5,49.79l2.28-8.51,27.6-.02c2.23,0,3.43-.74,3.61-2.22.21-1.6-.66-2.4-2.61-2.4-.21,0-.55,0-1.01,0-.4,0-.69,0-.87,0-4.06-.09-8.12-.16-12.17-.22-4.21-.12-6.84-.31-7.87-.59-1.37-.36-2.36-.82-2.98-1.37-.86-.79-1.28-1.96-1.28-3.52,0-.49.04-1,.14-1.55.45-3.38,1.44-6.24,2.97-8.59.49-.73,1.34-1.52,2.56-2.38,1.22-.85,2.41-1.43,3.57-1.74,1.98-.52,4.26-.78,6.82-.78l27.41-.02-2.14,8.29-25.99.02c-2.41-.06-3.86.69-4.34,2.25-.09.24-.14.46-.14.64,0,1.16,1.1,1.74,3.3,1.74,5.12.03,11.32.19,18.58.49,3.17.36,5.25,1.19,6.23,2.47.58.76.87,1.9.87,3.39,0,1.1-.15,2.29-.45,3.58-.67,2.66-1.61,4.77-2.83,6.33-.82,1.04-2.16,2.04-4.02,2.99-2.17,1.13-4.26,1.7-6.27,1.7l-30.94.03Z"/>
  <path class="cls-2" d="M692.72,41.4c-.37-.37-.92-.55-1.65-.55h-12.63s2.19-8.41,2.19-8.41h13.96c1.19-.01,2.17-.27,2.93-.79.52-.37.98-1.01,1.37-1.93l4.06-13.86h10.53c-.76,3.29-1.49,6.22-2.19,8.79-1.7,6.11-3.13,9.81-4.29,11.09-.52.58-1.04,1.15-1.55,1.72-.52.57-1.1,1.06-1.74,1.49l1.15,10.77h-11.4s-.23-6.75-.23-6.75c.03-.68-.14-1.2-.51-1.56M672.11,15.88h10.75s-8.85,33.87-8.85,33.87h-10.57s8.67-33.87,8.67-33.87Z"/>
  <path class="cls-2" d="M758.43,25.02c-.3,2.32-2.52,10.54-6.66,24.66h-10.34c.36-1.52.93-3.87,1.69-7.03.06-1.35-.84-2.02-2.7-2.02h-16.39c.49-1.69,1.29-4.56,2.42-8.59h17.25c1.04-.02,1.89-.57,2.56-1.66.46-.79.74-1.66.87-2.61.12-.98-.17-1.76-.87-2.36-.7-.59-1.68-.92-2.93-.98h-9.84c-2.14,0-3.71.15-4.71.43-1.77.46-2.87,1.41-3.29,2.85-1.16,4.07-3.16,11.4-6.02,22.01h-10.48c1.16-4.7,2.34-9.2,3.56-13.51.94-3.45,1.49-5.53,1.64-6.23,1-4.83,2.86-8.25,5.58-10.27,1.95-1.44,3.79-2.44,5.51-3.01,1.72-.57,3.9-.85,6.52-.85h16.57c3.02.11,5.47.88,7.35,2.29,1.88,1.42,2.82,3.3,2.82,5.66,0,.4-.03.81-.09,1.24"/>
  <path class="cls-3" d="M951.92,177.47s5.9,6.71,16.64,6.71c9.85,0,15.89-6.34,15.89-14.18,0-17.24-26.19-13.66-26.19-26.12,0-4.63,4.33-9.03,11.04-9.03s11.49,4.48,11.49,4.48l2.54-4.33s-4.92-5.07-14.03-5.07c-9.7,0-16.34,6.57-16.34,14.1,0,16.27,26.19,12.91,26.19,26.11,0,5.67-4.7,9.1-10.45,9.1-8.28,0-13.73-5.75-13.73-5.75l-3.06,3.95ZM892.9,183.29h5.15v-37.76c0-2.76-.45-7.09-.45-7.09h.15s2.54,4.48,4.33,7.09l26.79,37.76h5v-52.45h-5.15v37.76c0,2.76.45,7.09.45,7.09h-.15s-2.54-4.48-4.33-7.09l-26.79-37.76h-5v52.45ZM855.67,136.28s1.12,4.33,2.01,6.79l6.86,19.03h-18.06l7.01-19.03c.89-2.46,2.01-6.79,2.01-6.79h.15ZM872.16,183.29h5.45l-19.25-52.45h-5.52l-19.25,52.45h5.45l5.97-16.71h21.12l6.04,16.71ZM794.85,183.29h29.47v-4.63h-24.33v-47.83h-5.15v52.45ZM748.67,158.07v-22.61h12.39c6.94,0,11.49,4.1,11.49,11.19s-4.55,11.42-11.57,11.42h-12.31ZM743.52,183.29h5.15v-20.59h12.98c9.4,0,16.19-6.27,16.19-16.04s-6.79-15.82-16.19-15.82h-18.13v52.45ZM654.05,183.29h5.15v-23.95h30.44v23.95h5.15v-52.45h-5.15v23.88h-30.44v-23.88h-5.15v52.45ZM615.25,183.29h5.15v-47.83h18.8v-4.63h-42.83v4.63h18.88v47.83ZM563.24,183.29h29.47v-4.63h-24.32v-47.83h-5.15v52.45ZM526.01,136.28s1.12,4.33,2.02,6.79l6.86,19.03h-18.06l7.01-19.03c.9-2.46,2.02-6.79,2.02-6.79h.15ZM542.5,183.29h5.45l-19.25-52.45h-5.52l-19.25,52.45h5.45l5.97-16.71h21.12l6.04,16.71ZM461.24,183.29h30.89v-4.63h-25.74v-19.47h19.92v-4.63h-19.92v-19.1h24.4v-4.63h-29.55v52.45ZM398.57,183.29h5.15v-23.95h30.44v23.95h5.15v-52.45h-5.15v23.88h-30.44v-23.88h-5.15v52.45Z"/>
</svg>