<?xml version="1.0" encoding="UTF-8"?>
<svg id="Layer_1" data-name="Layer 1" xmlns="http://www.w3.org/2000/svg" viewBox="0 0 730.85 392.7">
  <defs>
    <style>
      .cls-1 {
        fill: #fff;
        stroke-width: 0px;
      }
    </style>
  </defs>
  <path class="cls-1" d="M392.14,11.87l-11.84,45.76h65.08c5.91-1.18,21.69-5.13,21.69-22.09.4-5.12-2.75-22.09-22.88-24.06-7.1,0-52.06.39-52.06.39"/>
  <path class="cls-1" d="M378.31,67.44l-12.22,46.52h67.02s18.92-3.55,20.1-23.26c-.39-8.68-3.93-19.33-21.28-23.26h-53.62Z"/>
  <path class="cls-1" d="M308.52,113.53s6.02-23.72,8.83-33.37c4.46-10.48,17.7-13.29,17.7-13.29h35.02s0,1.21-7.62,29.78c-5.23,15.28-18.52,17.32-18.52,17.32l-35.41-.43Z"/>
  <path class="cls-1" d="M258.16,113.96l26.72-101.69h99.09l-12.25,46.39s-28.95-.74-31.55-.37c-4.08,0-20.04-.37-31.18,20.41-2.6,9.28-9.28,35.26-9.28,35.26h-41.56Z"/>
  <path class="cls-1" d="M458.68,105.65h2.16c.45,0,.82-.05,1.07-.16.26-.1.45-.27.59-.5.13-.23.2-.48.2-.75,0-.4-.13-.72-.39-.98-.26-.25-.67-.38-1.23-.38h-2.4v2.77ZM457.66,110.42v-8.49h3.38c.67,0,1.19.08,1.54.23.35.15.63.42.84.81.21.39.32.81.32,1.28,0,.6-.17,1.11-.53,1.52-.35.41-.88.68-1.61.79.27.14.47.28.61.42.3.3.58.68.84,1.13l1.31,2.31h-1.26l-1-1.76c-.29-.51-.53-.9-.72-1.17-.19-.27-.36-.46-.51-.57-.15-.11-.3-.18-.46-.23-.11-.03-.3-.04-.56-.04h-1.17v3.77h-1.02Z"/>
  <path class="cls-1" d="M460.68,99.68c-3.73,0-6.76,3.03-6.76,6.76s3.03,6.76,6.76,6.76,6.76-3.03,6.76-6.76-3.03-6.76-6.76-6.76M460.68,113.98c-4.16,0-7.54-3.38-7.54-7.54s3.38-7.54,7.54-7.54,7.54,3.38,7.54,7.54-3.38,7.54-7.54,7.54"/>
  <path class="cls-1" d="M107.69,227.05l-2.76,9.98h-26.72c-1.21,0-2.3.4-3.25,1.21-.96.81-1.49,1.76-1.6,2.86-.07.81.04,1.53.33,2.15.4.81,1.05,1.21,1.93,1.21h25.84l-2.48,9.48h-26.34c-1.73.04-2.9,1.24-3.53,3.6-.81,3.21-1.71,6.64-2.7,10.29h-12.45l8.43-33.11c.29-.77.62-1.49.99-2.15.85-1.58,1.81-2.77,2.89-3.56,1.08-.79,2.19-1.3,3.33-1.52.4-.07,2.08-.22,5.01-.44h33.06Z"/>
  <path class="cls-1" d="M160.15,238.14c-.37,2.8-3.05,12.69-8.05,29.69h-12.45c.44-1.85,1.12-4.67,2.04-8.47.07-1.62-1.01-2.44-3.25-2.44h-19.73c.59-2.06,1.56-5.51,2.92-10.36h20.77c1.25,0,2.28-.66,3.09-1.98.55-.96.9-2,1.05-3.14.15-1.18-.2-2.12-1.05-2.84-.85-.72-2.02-1.11-3.53-1.18h-11.85c-2.57,0-4.46.17-5.68.5-2.13.55-3.45,1.69-3.97,3.42-1.4,4.89-3.82,13.73-7.27,26.5h-12.62c1.4-5.67,2.83-11.09,4.3-16.28,1.14-4.16,1.8-6.66,1.98-7.5,1.21-5.81,3.45-9.93,6.72-12.36,2.35-1.73,4.56-2.93,6.64-3.61,2.08-.68,4.69-1.02,7.85-1.02h19.95c3.64.15,6.58,1.08,8.84,2.79,2.26,1.71,3.39,3.98,3.39,6.81,0,.48-.04.98-.11,1.49"/>
  <path class="cls-1" d="M155.85,267.83c3.42-13.35,5.73-22.35,6.94-26.98.51-2.06,1.05-4.14,1.6-6.24.73-2.13,1.76-3.72,3.09-4.75,2.5-1.88,5.31-2.82,8.43-2.82h22.1c6.98,0,11.2,1.34,12.67,4.03.92,1.62,1.38,3.48,1.38,5.57,0,1.03-.09,2.19-.27,3.48-.33,2.54-1.05,5.06-2.15,7.56-1.1,2.5-2.24,4.25-3.42,5.24-.92.77-1.78,1.42-2.59,1.93.81,7.5,1.29,11.83,1.43,12.97l-13.68-.05-.22-8.16c.04-.99-.13-1.69-.5-2.09-.74-.4-1.3-.64-1.71-.72h-15.71l2.89-9.81h17.3c2.02,0,3.4-.83,4.13-2.48.73-1.65,1.1-3.16,1.1-4.52,0-2.02-.86-3.01-2.59-2.97h-16.42c-1.95,0-3.31,1.03-4.08,3.09-2.98,10.32-5.53,19.54-7.66,27.66l-12.07.05Z"/>
  <path class="cls-1" d="M278.74,227.05c4.44,0,7.95,1.42,10.52,4.24.95,1.07,1.43,2.7,1.43,4.9,0,1.54-.2,3.14-.61,4.79l-7.11,26.78-12.89.06,6.78-25.95c.37-1.54.25-2.57-.36-3.09-.61-.51-1.9-.77-3.88-.77h-6.67c-1.43,0-2.59.24-3.47.72-1.14.62-1.87,1.52-2.2,2.7l-7.16,26.34-13,.06,6.89-26.83c.37-1.25.29-2.12-.22-2.6-.73-.66-2.59-1.03-5.56-1.1h-5.12c-1.87.07-3.22.37-4.02.88-1.1.74-1.78,1.6-2.04,2.59l-7.33,27-12.67.06,10.74-40.78h57.97Z"/>
  <path class="cls-1" d="M363.82,239.17c.15-1.76-.88-2.64-3.08-2.64h-17.91c-1.36,0-2.5.4-3.42,1.21-.92.81-1.38,1.85-1.38,3.14,0,1.62.72,2.42,2.15,2.42h18.85c1.1,0,2.11-.33,3.03-.99,1.07-.77,1.65-1.82,1.76-3.14M377.26,235.55c-.55,6.26-3.49,10.1-8.82,11.53,4,.77,5.84,3.03,5.51,6.79-.55,6.48-3.55,10.78-8.98,12.91-.88.33-2.92.68-6.12,1.05h-25.51c.84-2.76,1.69-5.82,2.53-9.2h20.72c1.32-.11,2.41-.57,3.28-1.39.86-.81,1.35-1.78,1.46-2.89.04-.81-.17-1.48-.63-2-.46-.52-1.04-.78-1.73-.78h-20.33c-2.35,0-3.93,1.62-4.74,4.86-.59,2.36-1.65,6.16-3.2,11.39h-12.23c1.03-4.52,2.61-10.87,4.74-19.04,2.09-8.06,3.54-13.35,4.35-15.89.55-1.69,1.96-3.15,4.24-4.36,1.95-.99,3.75-1.49,5.4-1.49h31.13c1.43,0,2.9.29,4.41.88,1.39.55,2.39,1.18,2.97,1.88,1.1,1.33,1.65,2.74,1.65,4.25,0,.26-.04.76-.11,1.49"/>
  <path class="cls-1" d="M410.1,267.77h-19.56c-5.88,0-10.05-1.36-12.51-4.08-.99-1.06-1.49-2.74-1.49-5.01,0-1.54.2-3.14.61-4.79l7.33-26.84h12.73l-7,25.85c-.48,1.51-.33,2.65.44,3.44.77.79,1.96,1.19,3.58,1.19h14.82c2.02,0,3.49-.35,4.41-1.05,1.32-.99,2.15-1.97,2.48-2.92l7.55-26.51h12.67l-7.66,27.44c-1.76,4.41-3.62,7.46-5.57,9.15-3.23,2.75-7.51,4.13-12.84,4.13"/>
  <path class="cls-1" d="M430.11,267.83c3.42-13.35,5.73-22.35,6.94-26.98.51-2.06,1.05-4.14,1.6-6.24.73-2.13,1.76-3.72,3.09-4.75,2.5-1.88,5.31-2.82,8.43-2.82h22.1c6.98,0,11.2,1.34,12.67,4.03.92,1.62,1.38,3.48,1.38,5.57,0,1.03-.09,2.19-.28,3.48-.33,2.54-1.05,5.06-2.15,7.56-1.1,2.5-2.24,4.25-3.42,5.24-.92.77-1.78,1.42-2.59,1.93.81,7.5,1.29,11.83,1.43,12.97l-13.68-.05-.22-8.16c.04-.99-.13-1.69-.5-2.09-.74-.4-1.31-.64-1.71-.72h-15.71l2.89-9.81h17.3c2.02,0,3.4-.83,4.13-2.48.73-1.65,1.1-3.16,1.1-4.52,0-2.02-.86-3.01-2.59-2.97h-16.42c-1.95,0-3.31,1.03-4.08,3.09-2.98,10.32-5.53,19.54-7.66,27.66l-12.07.05Z"/>
  <path class="cls-1" d="M538.88,227.05l-2.76,9.98h-29.48c-2.46,0-3.8,1.22-4.02,3.66-.15,1.68.42,2.55,1.71,2.62h28.21l-2.26,8.27h-28.32c-.96,0-1.71.48-2.26,1.45-.44.67-.7,1.41-.77,2.22-.11,1.37.52,2.15,1.87,2.33h30.2l-2.81,10.25h-38.41c-1.51,0-2.76-.61-3.77-1.82-1.01-1.21-1.42-2.43-1.24-3.64.29-1.99,1.61-7.32,3.97-16,1.73-6.44,3.47-12.87,5.24-19.31h44.91Z"/>
  <path class="cls-1" d="M591.34,238.14c-.37,2.8-3.05,12.69-8.05,29.69h-12.45c.44-1.85,1.12-4.67,2.04-8.47.07-1.62-1.01-2.44-3.25-2.44h-19.73c.59-2.06,1.56-5.51,2.92-10.36h20.77c1.25,0,2.28-.66,3.09-1.98.55-.96.9-2,1.05-3.14.15-1.18-.2-2.12-1.05-2.84-.85-.72-2.02-1.11-3.53-1.18h-11.85c-2.57,0-4.46.17-5.68.5-2.13.55-3.45,1.69-3.97,3.42-1.4,4.89-3.82,13.73-7.27,26.5h-12.62c1.4-5.67,2.83-11.09,4.3-16.28,1.14-4.16,1.8-6.66,1.98-7.5,1.21-5.81,3.45-9.93,6.72-12.36,2.35-1.73,4.56-2.93,6.64-3.61,2.07-.68,4.69-1.02,7.85-1.02h19.95c3.64.15,6.59,1.08,8.84,2.79,2.26,1.71,3.39,3.98,3.39,6.81,0,.48-.04.98-.11,1.49"/>
  <path class="cls-1" d="M623.52,267.77h-19.56c-5.88,0-10.05-1.36-12.51-4.08-.99-1.06-1.49-2.74-1.49-5.01,0-1.54.2-3.14.61-4.79l7.33-26.84h12.73l-7,25.85c-.48,1.51-.33,2.65.44,3.44.77.79,1.96,1.19,3.58,1.19h14.82c2.02,0,3.49-.35,4.41-1.05,1.32-.99,2.15-1.97,2.48-2.92l7.55-26.51h12.67l-7.66,27.44c-1.76,4.41-3.62,7.46-5.57,9.15-3.23,2.75-7.51,4.13-12.84,4.13"/>
  <path class="cls-1" d="M662.42,234.12h2.26c.48,0,.85-.05,1.12-.17.27-.11.48-.28.62-.53.14-.24.21-.5.21-.79,0-.41-.14-.76-.41-1.02-.27-.27-.7-.4-1.29-.4h-2.52v2.9ZM661.35,239.11v-8.89h3.54c.71,0,1.24.08,1.62.24.37.16.66.44.88.85.22.41.33.85.33,1.34,0,.63-.18,1.16-.55,1.59-.37.43-.93.71-1.69.83.28.15.49.3.64.44.31.32.6.71.87,1.18l1.38,2.42h-1.32l-1.05-1.85c-.31-.53-.56-.94-.76-1.22-.2-.28-.38-.48-.53-.6-.16-.11-.32-.19-.48-.24-.12-.03-.31-.04-.58-.04h-1.22v3.95h-1.07Z"/>
  <path class="cls-1" d="M664.51,227.87c-3.9,0-7.08,3.18-7.08,7.08s3.18,7.08,7.08,7.08,7.08-3.18,7.08-7.08-3.18-7.08-7.08-7.08M664.51,242.85c-4.36,0-7.9-3.54-7.9-7.9s3.54-7.9,7.9-7.9,7.9,3.54,7.9,7.9-3.54,7.9-7.9,7.9"/>
  <path class="cls-1" d="M192.54,160.31c2.64,0,4.65.14,6.04.43,2.12.48,3.79,1.37,5,2.69.84.91,1.26,2.4,1.27,4.45,0,1.9-.33,4.01-.98,6.32l-7.06,26.7-12.69.07,6.73-25.76c.25-.73.38-1.36.38-1.87,0-.7-.2-1.25-.6-1.65-.77-.77-1.96-1.15-3.57-1.15h-18.45c-1.79.02-3.13.31-4.01.9-1.1.74-1.77,1.59-2.03,2.58l-7.28,26.92-12.63.07,10.67-40.65,39.21-.03Z"/>
  <path class="cls-1" d="M256.74,160.25l-2.74,9.94-29.38.02c-2.45,0-3.79,1.22-4,3.65-.15,1.67.42,2.54,1.71,2.61l28.12-.02-2.25,8.24-28.23.02c-.95,0-1.7.48-2.25,1.44-.44.67-.69,1.4-.77,2.22-.11,1.37.51,2.14,1.87,2.33l30.1-.03-2.79,10.22-38.28.03c-1.5,0-2.76-.6-3.76-1.81-1.01-1.21-1.42-2.42-1.24-3.63.29-1.98,1.6-7.3,3.94-15.95,1.71-6.42,3.45-12.83,5.2-19.25l44.76-.04Z"/>
  <path class="cls-1" d="M296.29,172.3c.14-1.76-.88-2.64-3.08-2.63h-17.85c-1.35.02-2.49.42-3.4,1.23-.91.81-1.37,1.85-1.37,3.13,0,1.61.72,2.42,2.14,2.41l18.78-.02c1.1,0,2.1-.33,3.02-.99,1.06-.77,1.65-1.82,1.75-3.13M309.68,168.68c-.54,6.23-3.47,10.07-8.78,11.5,3.99.77,5.83,3.02,5.5,6.76-.54,6.46-3.52,10.75-8.94,12.88-.88.33-2.91.68-6.09,1.05l-25.43.02c.84-2.75,1.68-5.8,2.52-9.17l20.65-.02c1.32-.11,2.41-.57,3.27-1.39.86-.81,1.34-1.77,1.45-2.88.04-.81-.17-1.48-.63-1.99-.46-.51-1.04-.77-1.73-.77l-20.27.02c-2.34,0-3.92,1.62-4.72,4.85-.59,2.35-1.64,6.14-3.18,11.35h-12.19c1.02-4.5,2.59-10.83,4.71-18.97,2.08-8.03,3.52-13.31,4.32-15.84.55-1.69,1.96-3.14,4.22-4.35,1.94-.99,3.73-1.49,5.38-1.49l31.03-.03c1.43,0,2.89.29,4.39.88,1.39.55,2.38,1.17,2.97,1.87,1.1,1.32,1.65,2.73,1.65,4.23,0,.26-.04.75-.11,1.48"/>
  <path class="cls-1" d="M306.09,200.85c3.39-13.31,5.69-22.28,6.9-26.9.51-2.05,1.04-4.13,1.59-6.22.73-2.13,1.75-3.7,3.07-4.73,2.49-1.87,5.29-2.81,8.4-2.81l22.02-.02c6.96,0,11.17,1.33,12.64,4,.92,1.61,1.38,3.46,1.38,5.55,0,1.03-.09,2.18-.27,3.46-.33,2.53-1.04,5.04-2.14,7.54-1.1,2.49-2.23,4.24-3.4,5.23-.92.77-1.77,1.41-2.58,1.93.81,7.48,1.29,11.79,1.44,12.92l-13.63-.04-.23-8.13c.04-.99-.13-1.68-.49-2.09-.73-.4-1.3-.64-1.71-.71h-15.66s2.87-9.77,2.87-9.77h17.24c2.01-.02,3.39-.84,4.12-2.49.73-1.65,1.1-3.15,1.1-4.5,0-2.01-.86-3-2.58-2.96h-16.37c-1.94.02-3.29,1.04-4.06,3.09-2.96,10.29-5.49,19.48-7.61,27.58l-12.03.07Z"/>
  <path class="cls-1" d="M417.99,171.17c-.37,2.79-3.03,12.65-7.99,29.59h-12.41c.44-1.83,1.11-4.65,2.03-8.44.07-1.62-1.01-2.43-3.24-2.43l-19.66.02c.58-2.05,1.55-5.49,2.9-10.33l20.71-.02c1.24,0,2.27-.66,3.07-1.98.55-.95.89-2,1.04-3.13.14-1.17-.2-2.11-1.05-2.83-.84-.71-2.01-1.1-3.52-1.18h-11.81c-2.56.01-4.45.18-5.66.51-2.12.55-3.44,1.69-3.95,3.41-1.39,4.88-3.8,13.68-7.23,26.42h-12.58c1.39-5.64,2.81-11.05,4.27-16.22,1.13-4.14,1.79-6.64,1.97-7.48,1.2-5.79,3.43-9.9,6.69-12.32,2.34-1.73,4.55-2.93,6.61-3.61,2.07-.68,4.68-1.02,7.83-1.02l19.88-.02c3.62.15,6.56,1.07,8.82,2.77,2.25,1.7,3.38,3.97,3.38,6.79,0,.48-.04.97-.11,1.49"/>
  <path class="cls-1" d="M415.7,200.76l2.74-10.22,33.12-.03c2.67,0,4.12-.89,4.34-2.67.25-1.92-.79-2.88-3.13-2.88-.26,0-.66,0-1.21,0-.48,0-.82,0-1.04,0-4.87-.11-9.74-.19-14.61-.26-5.05-.14-8.2-.38-9.45-.71-1.65-.44-2.84-.98-3.57-1.64-1.03-.95-1.54-2.35-1.54-4.22,0-.58.05-1.21.16-1.86.54-4.05,1.73-7.49,3.56-10.31.58-.88,1.61-1.83,3.07-2.85,1.46-1.02,2.89-1.72,4.28-2.08,2.38-.62,5.11-.94,8.18-.94l32.9-.03-2.57,9.94-31.19.03c-2.89-.07-4.63.83-5.21,2.7-.11.29-.17.55-.17.77,0,1.39,1.32,2.09,3.96,2.08,6.15.03,13.58.23,22.3.59,3.81.44,6.3,1.43,7.47,2.97.7.92,1.05,2.27,1.05,4.07,0,1.32-.18,2.75-.55,4.29-.8,3.19-1.94,5.72-3.4,7.6-.99,1.25-2.6,2.44-4.83,3.58-2.6,1.36-5.11,2.04-7.52,2.04l-37.12.03Z"/>
  <path class="cls-1" d="M504.77,190.69c-.44-.44-1.1-.66-1.98-.66h-15.16s2.63-10.1,2.63-10.1h16.75c1.43-.01,2.6-.33,3.51-.95.62-.44,1.17-1.21,1.65-2.31l4.87-16.64h12.63c-.91,3.95-1.79,7.47-2.63,10.55-2.04,7.33-3.76,11.77-5.15,13.31-.62.7-1.24,1.39-1.86,2.06-.62.68-1.32,1.27-2.08,1.79l1.38,12.92h-13.67s-.28-8.1-.28-8.1c.04-.81-.17-1.44-.61-1.88M480.03,160.06h12.91s-10.62,40.64-10.62,40.64h-12.69s10.4-40.64,10.4-40.64Z"/>
  <path class="cls-1" d="M583.62,171.03c-.37,2.79-3.03,12.65-7.99,29.6h-12.41c.44-1.83,1.11-4.65,2.03-8.44.07-1.62-1.01-2.43-3.24-2.43l-19.66.02c.58-2.05,1.55-5.49,2.9-10.33l20.71-.02c1.24,0,2.27-.66,3.07-1.98.55-.95.9-2,1.04-3.13.14-1.17-.2-2.11-1.05-2.83-.84-.71-2.02-1.11-3.52-1.18h-11.81c-2.56.01-4.45.18-5.66.51-2.12.55-3.44,1.69-3.95,3.41-1.39,4.88-3.8,13.68-7.23,26.42h-12.58c1.39-5.64,2.81-11.04,4.27-16.22,1.13-4.14,1.79-6.64,1.97-7.48,1.2-5.79,3.43-9.9,6.69-12.33,2.34-1.72,4.55-2.93,6.61-3.61,2.07-.68,4.68-1.02,7.83-1.02l19.88-.02c3.62.14,6.56,1.07,8.82,2.77,2.25,1.7,3.38,3.96,3.38,6.79,0,.48-.04.97-.11,1.48"/>
  <path class="cls-1" d="M677.92,373.15s7.07,8.06,19.97,8.06c11.82,0,19.07-7.61,19.07-17.01,0-20.68-31.43-16.39-31.43-31.34,0-5.55,5.19-10.83,13.25-10.83s13.79,5.37,13.79,5.37l3.04-5.19s-5.91-6.09-16.83-6.09c-11.64,0-19.61,7.88-19.61,16.92,0,19.52,31.43,15.49,31.43,31.34,0,6.8-5.64,10.92-12.54,10.92-9.94,0-16.47-6.89-16.47-6.89l-3.67,4.75ZM607.09,380.14h6.18v-45.31c0-3.31-.54-8.51-.54-8.51h.18s3.04,5.37,5.19,8.51l32.14,45.31h6v-62.95h-6.18v45.31c0,3.31.54,8.51.54,8.51h-.18s-3.05-5.37-5.19-8.51l-32.15-45.31h-6v62.95ZM562.41,323.73s1.34,5.19,2.42,8.15l8.24,22.83h-21.67l8.42-22.83c1.08-2.95,2.42-8.15,2.42-8.15h.18ZM582.2,380.14h6.54l-23.1-62.95h-6.63l-23.1,62.95h6.54l7.16-20.06h25.34l7.25,20.06ZM489.44,380.14h35.37v-5.55h-29.19v-57.4h-6.18v62.95ZM434.02,349.87v-27.13h14.86c8.33,0,13.79,4.92,13.79,13.43s-5.46,13.7-13.88,13.7h-14.77ZM427.84,380.14h6.18v-24.71h15.58c11.28,0,19.43-7.52,19.43-19.25s-8.15-18.98-19.43-18.98h-21.76v62.95ZM320.48,380.14h6.18v-28.74h36.53v28.74h6.18v-62.95h-6.18v28.65h-36.53v-28.65h-6.18v62.95ZM273.92,380.14h6.18v-57.39h22.56v-5.55h-51.4v5.55h22.65v57.39ZM211.51,380.14h35.37v-5.55h-29.19v-57.4h-6.18v62.95ZM166.83,323.73s1.34,5.19,2.42,8.15l8.24,22.83h-21.67l8.42-22.83c1.07-2.95,2.42-8.15,2.42-8.15h.18ZM186.62,380.14h6.54l-23.1-62.95h-6.63l-23.1,62.95h6.54l7.16-20.06h25.34l7.25,20.06ZM89.11,380.14h37.07v-5.55h-30.89v-23.37h23.91v-5.55h-23.91v-22.92h29.28v-5.55h-35.46v62.95ZM13.89,380.14h6.18v-28.74h36.53v28.74h6.18v-62.95h-6.18v28.65H20.07v-28.65h-6.18v62.95Z"/>
</svg>